<svg version="1.1" id="Layer_1" xmlns="http://www.w3.org/2000/svg" xmlns:xlink="http://www.w3.org/1999/xlink" x="0px" y="0px"
	 width="100%" viewBox="0 0 496 496" enable-background="new 0 0 496 496" xml:space="preserve">
<path fill="#000000" opacity="1.000000" stroke="none" 
	d="
M302.757874,13.031834 
	C362.008392,25.897240 408.927338,57.214619 445.248627,104.790421 
	C463.523438,128.727859 476.776031,155.324951 485.087494,184.274460 
	C490.845612,204.330566 493.988861,224.781876 494.492615,245.741364 
	C495.518494,288.426697 486.785126,328.890564 466.752960,366.503662 
	C437.895966,420.686615 394.816559,459.276642 337.081848,480.887848 
	C293.538818,497.186890 248.825302,500.363190 203.455582,490.667816 
	C149.196945,479.072845 103.971039,452.097015 68.220062,409.376221 
	C38.707825,374.110413 20.760998,333.677551 14.042123,288.373840 
	C8.771744,252.837021 11.364938,217.648743 21.570160,183.136047 
	C36.695004,131.985855 65.711510,90.218414 107.515511,57.346020 
	C137.394196,33.851032 171.381378,19.074080 208.615662,11.913509 
	C239.877625,5.901482 271.171600,6.254936 302.757874,13.031834 
M83.433342,419.064545 
	C94.961784,431.130035 107.731415,441.716705 121.595795,450.984406 
	C141.374710,464.205811 162.656082,474.270691 185.452423,481.081482 
	C198.057480,484.847443 210.890503,488.314362 223.920792,489.343567 
	C240.797348,490.676544 257.741241,491.394806 274.805969,489.898102 
	C294.543854,488.166901 313.511658,483.735352 332.074463,477.324280 
	C354.072815,469.726654 374.228424,458.561066 393.079132,444.881958 
	C418.673401,426.309326 438.982056,402.943573 455.368774,376.177216 
	C465.719025,359.270935 473.773621,341.182159 479.448364,322.086578 
	C484.877869,303.816376 488.567810,285.217438 489.565247,266.204895 
	C491.716431,225.201309 484.290588,186.009811 466.318970,148.953278 
	C456.610718,128.935364 444.372314,110.663307 429.869141,93.734924 
	C411.663666,72.485100 390.225616,55.238770 366.014038,41.657104 
	C341.319183,27.804350 314.724976,19.262808 286.544250,14.924569 
	C256.546967,10.306684 227.094635,12.562246 197.883438,19.138443 
	C179.872650,23.193138 162.657593,29.961487 146.191681,38.537167 
	C112.819763,55.917747 85.179581,79.962860 62.918304,110.150642 
	C45.674809,133.533981 33.078533,159.375443 25.244614,187.327179 
	C17.181770,216.095718 14.600675,245.491440 17.393276,275.305969 
	C18.776318,290.071625 21.157665,304.691162 25.400549,318.876953 
	C31.566883,339.493774 39.874264,359.250092 51.374176,377.546143 
	C60.593441,392.213715 70.743332,406.167480 83.433342,419.064545 
z"/>
<path fill="#000000" opacity="1.000000" stroke="none" 
	d="
M431.404572,404.379913 
	C412.041077,427.747955 389.116455,446.305603 362.794464,460.492554 
	C341.739899,471.840515 319.315277,479.945312 295.699219,483.868500 
	C269.975586,488.141754 244.170883,488.568573 218.155212,484.778412 
	C197.354523,481.748077 177.549225,475.782654 158.434814,467.666931 
	C140.328705,459.979401 123.766907,449.333710 108.224197,437.170227 
	C90.784012,423.521820 75.934517,407.371521 63.100689,389.482178 
	C50.350662,371.709625 40.589188,352.278656 33.336281,331.549164 
	C29.141949,319.561340 25.562016,307.404388 23.451939,294.965668 
	C19.174192,269.748871 18.525259,244.439987 22.226559,218.949615 
	C25.996880,192.983887 33.823082,168.422943 45.466484,145.071808 
	C54.780933,126.391449 66.808510,109.461006 80.588051,93.764160 
	C94.858238,77.508415 111.322823,63.804794 129.415115,52.101051 
	C145.244156,41.861366 162.184616,33.873970 180.135727,27.877796 
	C193.145782,23.532074 206.391632,20.185434 219.889267,18.480812 
	C237.853500,16.212105 255.870392,15.099045 274.123047,17.126137 
	C289.412140,18.824097 304.426849,21.264406 319.113770,25.646759 
	C351.493286,35.308327 380.398834,51.509094 405.590942,73.870926 
	C431.125427,96.536636 451.268127,123.465546 465.183502,154.792068 
	C475.156555,177.243637 481.878235,200.521576 484.607971,225.113922 
	C486.906342,245.819397 486.506256,266.335907 484.059814,286.872009 
	C482.584106,299.259827 479.171631,311.300812 475.613800,323.243103 
	C468.728271,346.354889 457.947693,367.637970 444.484344,387.560760 
	C440.582092,393.335236 435.948547,398.615540 431.404572,404.379913 
M276.317291,20.271200 
	C244.920898,17.007875 214.165176,20.464561 184.114395,29.769197 
	C161.588821,36.743801 141.061493,47.725033 121.734390,61.335144 
	C98.568825,77.648285 79.368439,97.658150 63.562851,120.940872 
	C44.546333,148.953506 32.002445,179.725143 26.298983,213.167892 
	C18.630758,258.131195 23.853432,301.750732 41.295048,343.732269 
	C51.771935,368.949860 66.675171,391.662170 85.458153,411.503326 
	C112.688095,440.267303 144.989044,461.167480 183.018402,473.162445 
	C204.956009,480.081909 227.197388,483.617401 250.186859,484.065552 
	C282.322296,484.692017 313.183838,478.840393 342.548889,466.307953 
	C376.707581,451.729736 405.940033,430.152740 429.492401,401.132721 
	C454.706299,370.065552 471.361908,335.190430 478.973389,295.747070 
	C484.939331,264.831116 484.215729,234.139084 478.148895,203.554382 
	C474.621490,185.771515 468.394348,168.658585 460.593842,152.240784 
	C451.775055,133.679779 440.579468,116.608643 427.315216,100.903572 
	C413.050751,84.014168 396.736938,69.431625 378.397034,57.071335 
	C365.102417,48.111362 350.961792,40.707005 336.151764,34.743477 
	C317.246338,27.130848 297.469116,22.649008 276.317291,20.271200 
z"/>
<path fill="#000000" opacity="1.000000" stroke="none" 
	d="
M317.859802,97.550018 
	C318.328888,104.306854 319.791718,110.438965 321.070038,116.632538 
	C326.007141,140.553131 330.632446,164.537933 335.483856,188.476532 
	C336.736847,194.659393 338.434509,200.751007 339.837524,206.905151 
	C340.375305,209.264114 340.609467,211.352753 337.304199,212.318756 
	C321.099365,217.054840 305.839722,223.997925 291.354340,232.645477 
	C285.123962,236.364899 278.898376,240.109222 273.907074,245.735245 
	C296.493103,232.518967 320.726959,223.579102 346.245361,216.882111 
	C345.384308,209.297577 343.811157,202.049057 342.295868,194.758331 
	C338.238708,175.237396 334.524628,155.645370 330.605133,136.095459 
	C328.941071,127.795364 327.445099,119.437019 325.222595,111.282349 
	C323.814392,106.115433 326.238800,104.918129 330.320679,103.849113 
	C334.813080,102.672569 335.295105,105.427162 335.947479,108.593300 
	C340.907684,132.666443 346.383972,156.644882 350.749420,180.824341 
	C353.171448,194.239258 357.159546,207.309906 358.841827,220.888672 
	C359.336792,224.883987 358.584473,226.327591 354.922150,227.101196 
	C339.462463,230.366821 324.289948,234.648117 309.429474,240.054062 
	C292.689911,246.143585 276.119141,252.555527 261.653595,263.286255 
	C259.993805,264.517517 258.331268,264.644775 256.475555,264.279602 
	C227.506805,258.578705 198.531738,260.699036 169.517105,263.969391 
	C163.576859,264.638947 157.799545,266.253235 151.555344,266.805450 
	C148.317352,257.521179 146.912018,247.961990 145.037262,238.591537 
	C141.680435,221.813309 138.602951,204.984528 134.871460,188.274887 
	C131.940857,175.151505 129.723831,161.870148 127.027473,148.692184 
	C126.303040,145.151657 127.764313,143.743469 130.945633,143.247162 
	C133.831146,142.797012 136.894516,141.326096 137.743027,146.149216 
	C140.102646,159.561905 142.792892,172.947235 145.757309,186.203552 
	C149.348679,202.263611 151.199829,218.672577 155.786743,234.521698 
	C157.072891,238.965729 157.650848,243.636780 158.284500,248.240723 
	C158.805954,252.029236 160.660614,253.331390 164.403046,252.793732 
	C181.451370,250.344467 198.604294,250.264267 215.762817,250.956238 
	C226.522842,251.390152 237.122208,253.118393 247.595261,255.760895 
	C238.342072,251.048660 228.241119,249.355087 218.225998,247.302094 
	C202.048080,243.985809 185.683670,245.302277 169.411423,245.589432 
	C163.892548,245.686813 162.664185,243.587265 161.812012,239.147125 
	C156.864975,213.371338 151.781250,187.621719 146.717514,161.868408 
	C144.281342,149.478470 141.873901,137.081619 139.261261,124.728546 
	C138.582260,121.518059 139.413986,120.082535 142.654175,119.600227 
	C162.101257,116.705513 181.403824,116.420097 200.596024,121.656502 
	C209.947037,124.207832 219.077881,127.133743 227.391769,132.213257 
	C230.605164,134.176544 232.829559,133.885910 235.347015,130.573959 
	C247.186844,114.997604 262.821136,104.000275 280.280029,95.774292 
	C289.246490,91.549644 298.853882,88.635208 308.580933,86.221832 
	C313.399994,85.026176 315.439056,86.264221 316.245758,90.815720 
	C316.622559,92.941521 317.243195,95.024086 317.859802,97.550018 
M176.453339,127.320221 
	C170.115860,127.139191 163.814133,127.546684 157.509918,128.218643 
	C151.197601,128.891479 150.514725,129.422974 151.758392,135.643661 
	C158.011551,166.921280 164.441132,198.163773 170.620026,229.455872 
	C171.485809,233.840546 173.510712,234.955109 177.756989,234.799606 
	C202.300110,233.900803 225.742310,238.492035 247.788651,249.570633 
	C248.835693,250.096786 249.918777,250.568008 252.128860,249.397156 
	C248.626465,233.464005 245.059006,217.234970 241.491562,201.005936 
	C240.918854,201.089813 240.346130,201.173676 239.773422,201.257553 
	C238.492020,204.028534 239.200607,206.922699 239.931641,209.735138 
	C240.561966,212.160110 241.079330,214.561188 241.299057,217.074844 
	C241.584091,220.336044 240.528931,222.067688 237.111893,222.454086 
	C233.612503,222.849762 230.633041,223.865356 228.582977,227.472198 
	C226.788193,230.629898 219.384323,230.221558 217.012787,227.327576 
	C214.556473,224.330139 214.076874,221.247116 216.254196,217.694016 
	C218.973190,213.257034 222.748367,213.107117 227.112793,214.235489 
	C228.928360,214.704880 230.780426,216.643295 232.643600,214.769730 
	C234.364319,213.039383 233.332153,210.762268 232.549301,209.117569 
	C229.449448,202.605148 231.351105,197.298294 235.698257,192.197113 
	C237.399185,190.201172 239.256744,188.267563 240.361237,185.754868 
	C241.061600,184.161530 242.810242,183.622971 244.168243,184.665237 
	C251.224823,190.081131 261.725098,192.473206 261.589355,204.350784 
	C261.571869,205.879486 261.998138,207.865723 263.892151,208.455948 
	C265.992798,209.110565 266.659027,207.083435 267.779785,205.961823 
	C271.522339,202.216400 275.500519,201.619690 278.920410,204.289948 
	C282.608490,207.169617 283.583160,211.628494 281.340485,215.361404 
	C279.115448,219.064896 274.840759,220.476471 270.476013,218.198639 
	C267.431244,216.609634 264.720459,216.128983 261.494446,217.224319 
	C258.734650,218.161346 256.842285,217.627457 256.310913,214.058136 
	C255.701492,209.964691 254.461960,205.954361 253.333801,201.953705 
	C252.829666,200.165985 252.642685,197.826828 248.983170,198.061844 
	C252.242905,215.262192 255.376007,232.290955 259.816559,249.349579 
	C263.066223,247.959076 264.431671,246.000549 265.954376,244.307022 
	C274.340729,234.979736 283.681366,226.864502 294.524078,220.437881 
	C303.833557,214.919998 313.045776,209.280624 323.471863,206.044754 
	C327.225891,204.879654 328.639221,203.012299 327.484344,198.665695 
	C325.309937,190.482132 323.959747,182.080765 322.229614,173.777725 
	C317.349884,150.359741 312.415283,126.953102 307.596161,103.522690 
	C306.810822,99.704361 304.783844,98.400970 301.189026,99.521088 
	C296.274872,101.052292 291.291534,102.439819 286.526978,104.358643 
	C268.816101,111.491356 252.142014,120.330910 238.511047,134.114532 
	C236.279236,136.371338 235.535065,138.215698 236.559402,141.516922 
	C238.025909,146.243149 238.467270,151.292908 239.268753,156.217163 
	C239.559052,158.000931 240.078842,160.042435 237.172607,160.254288 
	C234.455276,160.452377 233.870773,158.829895 233.649536,156.538971 
	C233.152039,151.387558 231.506271,146.484634 230.173843,141.511414 
	C229.446548,138.796829 227.773117,137.319244 225.219650,136.431473 
	C209.732788,131.047150 193.885880,127.593033 176.453339,127.320221 
z"/>
<path fill="#000000" opacity="1.000000" stroke="none" 
	d="
M368.148071,309.524719 
	C357.926941,312.642914 353.481018,310.768127 346.643219,300.724365 
	C341.813141,306.295990 333.627258,303.177521 328.163696,308.023560 
	C331.138641,310.748657 334.073517,309.511139 336.794037,308.001068 
	C338.297424,307.166504 339.634552,306.353210 341.417847,306.634888 
	C342.811005,306.854919 344.065735,307.299530 344.513794,308.757233 
	C344.903900,310.026245 344.102295,310.942474 343.303741,311.840515 
	C338.542297,317.195129 329.788605,319.204590 324.239838,316.191040 
	C317.909027,312.752777 314.860626,305.077576 316.785309,297.808716 
	C318.287811,292.134155 322.245422,289.130981 327.625244,287.990295 
	C333.171906,286.814209 338.231903,287.990631 342.048706,292.575775 
	C343.208679,293.969238 344.221161,295.485504 345.332520,296.987823 
	C347.300842,296.029877 346.393799,294.265961 346.656311,292.957611 
	C348.480438,283.865601 359.621613,277.959045 367.557770,282.145660 
	C369.334137,283.082733 372.843445,283.722351 371.310272,286.895935 
	C370.079315,289.443878 367.789001,291.018372 364.281616,290.037964 
	C358.640625,288.461151 355.147888,292.036346 356.537048,297.564178 
	C357.518433,301.469421 360.875214,303.149323 364.632599,301.570709 
	C365.392639,301.251434 366.125885,300.812592 366.781921,300.311615 
	C369.273834,298.408813 372.123993,298.236511 373.899353,300.624878 
	C375.708984,303.059326 373.472717,305.298645 371.777588,307.096741 
	C370.889679,308.038666 369.595978,308.598053 368.148071,309.524719 
M329.351196,299.649231 
	C331.232544,299.253265 333.307007,299.390228 334.956909,297.582031 
	C332.620239,294.181244 329.823334,294.741943 326.934174,296.472809 
	C326.090424,296.978271 325.409515,297.924957 325.967743,298.989838 
	C326.523315,300.049774 327.662811,299.743073 329.351196,299.649231 
z"/>
<path fill="#000000" opacity="1.000000" stroke="none" 
	d="
M204.775696,358.392517 
	C210.469040,355.843994 215.863647,356.130951 221.116547,358.287598 
	C223.564438,359.292603 225.399277,361.143555 223.713730,364.188538 
	C222.375259,366.606537 221.175934,368.568420 217.522842,367.045013 
	C212.972641,365.147461 208.187744,365.578552 204.716675,369.599640 
	C201.426041,373.411743 201.377426,377.894836 203.780899,382.194397 
	C206.254730,386.619873 210.386124,388.208679 215.243515,387.495026 
	C218.506760,387.015594 221.318497,385.695129 220.413422,381.582184 
	C218.883591,380.454041 217.521988,381.081177 216.330673,381.429047 
	C213.451172,382.269836 211.537216,381.915588 210.863434,378.526672 
	C210.195602,375.167755 211.448563,373.450134 214.757584,373.038483 
	C215.416580,372.956512 216.065674,372.794708 216.719193,372.668945 
	C228.290619,370.442535 228.290634,370.442535 230.270966,381.883881 
	C231.227600,387.410828 228.773865,391.885681 222.186600,394.631317 
	C215.007034,397.623779 207.522797,398.078461 200.790192,393.333893 
	C193.231461,388.007202 191.540146,380.208740 193.122391,371.621368 
	C194.301514,365.221832 198.679138,361.214417 204.775696,358.392517 
z"/>
<path fill="#000000" opacity="1.000000" stroke="none" 
	d="
M163.690369,346.515991 
	C164.751602,350.102570 163.920258,351.810181 160.318420,352.478027 
	C156.714828,353.146271 155.569290,351.606079 154.888687,348.548859 
	C153.663132,343.043793 152.098938,337.612732 150.927170,332.097473 
	C149.676285,326.209717 151.121399,324.165924 157.071289,324.478973 
	C160.665039,324.668091 163.110016,321.773315 166.517609,322.097534 
	C171.656784,322.586456 176.207092,321.804504 180.868011,318.815033 
	C185.149918,316.068726 189.576248,318.362213 191.856857,323.175690 
	C195.030731,329.874512 195.298492,337.203247 196.442215,344.277832 
	C188.617599,347.157684 188.285904,346.959991 186.719986,339.358124 
	C186.150665,336.594208 185.460876,333.853485 184.763870,331.118042 
	C184.254501,329.118958 183.528778,326.884979 180.927841,327.557068 
	C178.665070,328.141785 177.460205,329.901245 178.006424,332.554993 
	C178.807755,336.448242 179.313904,340.403442 180.153946,344.287201 
	C180.787430,347.215881 180.324966,348.965759 176.956818,349.669067 
	C173.829239,350.322174 172.237366,349.555817 171.596054,346.392365 
	C170.772003,342.327484 169.828201,338.279999 168.739777,334.278381 
	C168.171875,332.190460 167.311188,329.789612 164.394119,330.679535 
	C162.011398,331.406403 161.222931,333.297852 161.785812,335.838715 
	C162.536987,339.229553 162.304077,342.799835 163.690369,346.515991 
z"/>
<path fill="#000000" opacity="1.000000" stroke="none" 
	d="
M134.424957,342.810638 
	C136.861130,348.247772 136.514557,353.469971 132.480133,357.022400 
	C126.861153,361.970062 119.858246,363.612122 112.397285,361.392242 
	C108.989761,360.378448 105.303185,359.429993 107.371933,354.313568 
	C108.416222,351.730896 109.702530,350.370422 112.617050,351.747833 
	C115.930252,353.313690 119.435287,353.272461 122.871407,352.323914 
	C124.386520,351.905670 126.422760,351.320251 126.258125,349.245483 
	C126.102798,347.288055 124.189857,346.680664 122.547394,346.488464 
	C119.250656,346.102570 115.925125,345.937317 112.607147,345.764313 
	C107.669350,345.506805 104.390106,342.822083 103.065811,338.326660 
	C101.587914,333.309875 103.756180,329.003906 107.667747,325.973999 
	C113.253448,321.647308 119.751076,321.849274 126.243591,323.474609 
	C129.696014,324.338959 129.860794,326.807587 128.919113,329.761810 
	C127.966537,332.750275 126.203720,333.121918 123.558533,331.953491 
	C121.031204,330.837067 118.330215,330.918182 115.714607,331.588623 
	C114.293205,331.953003 112.605568,332.584503 112.681137,334.418884 
	C112.758179,336.289154 114.449928,336.691254 115.961472,336.829193 
	C118.113953,337.025635 120.306801,336.860809 122.441895,337.149719 
	C126.879601,337.750122 131.459030,338.174408 134.424957,342.810638 
z"/>
<path fill="#000000" opacity="1.000000" stroke="none" 
	d="
M300.764465,338.281738 
	C304.695465,345.789612 305.715485,353.884857 307.146912,361.809814 
	C307.796112,365.404144 308.761902,368.922607 309.365234,372.522827 
	C309.865723,375.509644 308.782288,377.055420 305.858063,377.175018 
	C302.686798,377.304718 299.785461,378.186584 296.773071,379.191986 
	C283.446320,383.640045 276.603333,372.226410 278.005951,361.369843 
	C278.891235,354.517303 282.566254,351.333771 289.573303,350.678802 
	C293.032867,350.355438 295.438934,348.589935 294.420135,345.314819 
	C292.529785,339.237854 295.947968,338.497070 300.764465,338.281738 
M298.488251,367.996033 
	C298.222809,366.203461 298.026764,364.397156 297.676544,362.621307 
	C297.068817,359.539886 295.097198,357.945801 292.001312,358.360596 
	C288.740814,358.797455 287.143585,360.967590 287.153198,364.239319 
	C287.162354,367.359406 288.708496,369.653229 291.416260,371.001678 
	C294.342712,372.459015 296.474640,370.956421 298.488251,367.996033 
z"/>
<path fill="#000000" opacity="1.000000" stroke="none" 
	d="
M218.584686,341.151855 
	C216.366241,341.225189 214.551376,341.225189 212.761917,341.225189 
	C211.472641,343.759735 212.058502,346.173004 212.580704,348.263153 
	C213.531982,352.070770 211.454285,352.803680 208.579559,353.563354 
	C204.970413,354.517090 204.237961,352.250366 203.678513,349.656128 
	C201.654617,340.271088 199.952988,330.803619 197.539108,321.520844 
	C196.259689,316.600769 198.539124,314.945679 202.428467,314.847900 
	C205.192719,314.778351 207.410873,314.073090 209.806931,312.876923 
	C213.928406,310.819427 218.405350,310.727112 222.053497,313.678284 
	C226.954636,317.643127 229.427750,323.098846 228.882431,329.488159 
	C228.363525,335.568054 225.033417,339.559998 218.584686,341.151855 
M219.285522,326.867981 
	C218.649612,325.350220 218.189026,323.724274 217.335220,322.341003 
	C216.159882,320.436829 214.171539,319.951874 212.087479,320.422546 
	C209.876282,320.921967 208.105652,322.157623 207.528946,324.501953 
	C206.830521,327.341003 209.777542,332.871521 212.251297,333.551910 
	C216.113358,334.614136 218.045807,333.000671 219.285522,326.867981 
z"/>
<path fill="#000000" opacity="1.000000" stroke="none" 
	d="
M376.903168,292.938782 
	C375.428406,285.526154 372.867310,278.781128 372.399445,271.560760 
	C372.253998,269.315430 372.599365,267.796722 374.996887,267.788757 
	C377.221893,267.781311 380.186066,266.021759 381.222107,269.818207 
	C381.869812,272.191559 381.900848,274.756226 383.342041,276.935364 
	C385.634613,277.546143 387.073944,275.757629 388.857574,275.089996 
	C395.090912,272.756592 399.777893,274.937927 401.508148,281.290619 
	C402.904602,286.417908 403.935669,291.644562 405.325134,296.773956 
	C406.446686,300.914124 403.684174,301.474609 400.825928,302.209839 
	C397.473969,303.072052 396.310760,301.269501 395.821259,298.400330 
	C395.206787,294.798676 394.498260,291.213135 393.860138,287.615387 
	C393.388641,284.957062 392.079163,283.205414 389.146027,283.766846 
	C386.292877,284.313019 384.684570,286.211304 385.201965,289.154022 
	C385.862305,292.909637 386.638123,296.680206 387.806183,300.301758 
	C389.072998,304.229340 387.002716,305.287506 383.873413,306.093170 
	C380.329590,307.005524 379.023224,305.474579 378.632111,302.161835 
	C378.282440,299.200073 377.558075,296.282562 376.903168,292.938782 
z"/>
<path fill="#000000" opacity="1.000000" stroke="none" 
	d="
M339.535278,359.002930 
	C336.658325,360.576111 333.742096,360.454865 331.005524,361.123077 
	C328.341309,361.773682 325.488068,361.841461 322.736511,363.717957 
	C326.100464,366.691833 329.339569,366.076935 331.816406,363.692047 
	C334.827728,360.792694 337.295868,361.308899 339.286469,364.180511 
	C341.468567,367.328369 338.129852,368.528625 336.338287,369.897308 
	C328.984955,375.514801 319.660614,374.802399 313.860382,368.342285 
	C310.023895,364.069305 309.556854,354.868530 312.934479,350.102417 
	C317.486908,343.678497 324.699799,341.518585 331.871613,344.431549 
	C337.442932,346.694489 340.881226,352.886536 339.535278,359.002930 
M324.097534,351.396271 
	C322.474609,352.112335 320.599091,352.618378 321.041046,355.473938 
	C323.958923,355.952209 326.669464,355.558838 329.300446,354.088593 
	C328.851837,351.032654 326.789246,351.221222 324.097534,351.396271 
z"/>
<path fill="#000000" opacity="1.000000" stroke="none" 
	d="
M244.620667,318.840332 
	C244.707047,309.244629 247.873718,304.770142 255.584503,302.877869 
	C262.257843,301.240234 268.909851,304.414673 272.270996,310.840973 
	C274.702881,315.490601 273.647522,317.702820 268.746094,319.274994 
	C265.077332,320.451782 260.790558,319.745300 257.366150,322.773193 
	C259.035156,325.387207 261.105286,324.875397 263.092255,323.995911 
	C264.449005,323.395386 265.603790,322.352417 266.934692,321.676178 
	C269.099701,320.576050 270.842438,321.875885 272.365112,323.099487 
	C273.695770,324.168823 272.942963,325.431702 272.096924,326.600372 
	C269.036346,330.828278 260.746979,333.569153 255.341248,332.082245 
	C248.928314,330.318298 245.209839,325.874084 244.620667,318.840332 
M257.175720,310.733978 
	C255.956116,311.463928 254.298203,311.848846 254.784775,314.465759 
	C257.521484,315.009247 260.128845,315.265167 262.144135,312.484772 
	C261.139679,310.323761 259.554840,310.239990 257.175720,310.733978 
z"/>
<path fill="#000000" opacity="1.000000" stroke="none" 
	d="
M261.996063,380.340088 
	C262.262238,385.678619 260.118866,387.961456 255.350311,386.842682 
	C253.104095,386.315674 252.171036,387.009705 250.655182,388.103973 
	C244.587158,392.484375 238.084274,390.535278 235.315506,383.572479 
	C233.025620,377.813934 233.394363,371.494598 231.660233,365.584473 
	C230.750458,362.483887 233.539886,362.103058 235.630524,361.832062 
	C237.717697,361.561493 239.891830,361.216583 240.410400,364.530182 
	C241.048965,368.610687 242.354218,372.582306 243.213425,376.634460 
	C243.765427,379.237762 244.842148,381.228760 247.819351,380.506195 
	C250.542603,379.845306 252.059464,377.891602 251.556274,374.920135 
	C250.864914,370.837402 250.250122,366.726349 249.248245,362.715973 
	C248.289276,358.877228 251.086502,358.714294 253.367599,357.929535 
	C256.185059,356.960205 257.171936,358.383636 257.697815,360.966736 
	C258.988342,367.305664 260.485046,373.602600 261.996063,380.340088 
z"/>
<path fill="#000000" opacity="1.000000" stroke="none" 
	d="
M307.352600,308.771667 
	C307.994415,311.777435 308.511810,314.389099 309.251740,316.936127 
	C310.283966,320.489258 308.855286,321.961792 305.418640,322.866119 
	C301.647583,323.858490 300.816772,322.057831 300.169495,319.033264 
	C298.815155,312.705170 297.021393,306.466278 295.809784,300.114105 
	C294.986053,295.795349 292.826324,294.610657 288.811249,295.700043 
	C286.172241,296.416046 283.572449,297.115173 282.692139,293.072021 
	C281.875336,289.320343 283.458893,288.008575 286.863892,287.378510 
	C294.533173,285.959412 302.166412,284.337646 309.793549,282.701660 
	C313.001587,282.013489 313.766846,283.878754 314.456787,286.400574 
	C315.215790,289.175018 314.142639,290.478577 311.587616,291.036896 
	C310.775452,291.214355 309.973053,291.442352 309.155762,291.589386 
	C305.366882,292.270966 303.661255,293.963684 305.095642,298.142456 
	C306.218750,301.414398 306.610687,304.937317 307.352600,308.771667 
z"/>
<path fill="#000000" opacity="1.000000" stroke="none" 
	d="
M359.986633,345.245789 
	C356.445709,345.217590 353.070343,343.612823 350.005676,346.860809 
	C353.480103,348.714874 357.098389,347.710419 360.410400,348.510620 
	C363.598083,349.280823 366.202423,350.525391 367.036011,353.765686 
	C367.984131,357.450989 367.842224,361.099091 364.498566,363.805267 
	C359.050110,368.214905 352.815155,368.167206 346.472198,366.708710 
	C343.950256,366.128845 343.277710,364.372467 344.203278,361.682770 
	C345.085602,359.118744 346.242126,358.009338 348.914703,358.977417 
	C351.940552,360.073456 354.946442,360.688873 358.319336,358.123199 
	C355.666107,356.359741 353.073608,356.449188 350.504059,356.331024 
	C345.555298,356.103607 341.610931,353.127808 340.874329,349.168762 
	C340.060944,344.796967 342.652679,340.868347 347.692139,338.872131 
	C351.297424,337.444031 354.893066,336.376923 358.857758,337.657898 
	C363.790253,339.251617 364.251404,341.232880 359.986633,345.245789 
z"/>
<path fill="#000000" opacity="1.000000" stroke="none" 
	d="
M243.444031,333.862305 
	C241.413971,337.090881 238.369751,336.808167 235.815292,335.979248 
	C233.483063,335.222443 233.931152,332.436096 233.638382,330.321747 
	C232.387955,321.291046 229.074768,312.700500 227.999435,303.605804 
	C227.614075,300.346466 226.975723,297.876373 231.307648,296.971252 
	C235.378723,296.120697 236.160522,298.386475 236.785797,301.433685 
	C238.979828,312.126221 241.240372,322.805054 243.444031,333.862305 
z"/>
<path fill="#000000" opacity="1.000000" stroke="none" 
	d="
M267.047974,376.802887 
	C265.777130,371.049713 264.749664,365.673431 263.392975,360.381500 
	C262.727020,357.783783 263.070953,356.170044 265.881287,355.599030 
	C268.493988,355.068237 271.427307,354.031891 272.283325,357.915497 
	C273.884125,365.178406 275.334717,372.475616 276.754822,379.776642 
	C277.536865,383.797150 274.025696,383.197662 271.930267,383.893311 
	C269.584290,384.672089 268.080536,383.711945 267.764709,381.140167 
	C267.603394,379.826508 267.361328,378.522736 267.047974,376.802887 
z"/>
<path fill="#000000" opacity="1.000000" stroke="none" 
	d="
M139.906281,347.869720 
	C138.875229,342.725006 138.151428,337.938812 136.903580,333.293427 
	C135.867752,329.437347 137.636124,328.309540 140.903030,327.534729 
	C144.368591,326.712708 144.993240,328.125549 145.506836,331.257080 
	C146.527084,337.477875 148.013321,343.648926 149.738312,349.717957 
	C150.877518,353.726044 149.333374,355.056641 145.729782,355.894989 
	C141.850021,356.797577 141.048645,354.716949 140.670288,351.713013 
	C140.525223,350.561310 140.219284,349.429871 139.906281,347.869720 
z"/>
<path fill="#000000" opacity="1.000000" stroke="none" 
	d="
M135.648743,325.464111 
	C134.027924,322.420715 131.848206,319.373901 135.987091,317.256165 
	C137.753937,316.352173 140.127228,315.219025 142.030624,316.802338 
	C143.720398,318.207977 144.338409,320.526703 143.901123,322.663788 
	C143.388458,325.169220 141.013000,325.595795 138.887360,325.931213 
	C137.954605,326.078400 136.953857,325.794769 135.648743,325.464111 
z"/>
<path fill="#000000" opacity="1.000000" stroke="none" 
	d="
M270.047668,346.318298 
	C271.079651,350.762604 269.558624,353.069031 265.371796,353.460510 
	C261.590393,353.814087 261.245270,350.973663 260.813904,348.371826 
	C260.566010,346.876465 260.686890,345.019470 262.586365,344.904755 
	C265.044617,344.756317 268.012177,342.026276 270.047668,346.318298 
z"/>
<path fill="#000000" opacity="1.000000" stroke="none" 
	d="
M229.614883,175.681137 
	C231.005722,173.783447 232.307404,172.256195 233.388519,170.586166 
	C237.785400,163.794250 238.259933,163.727707 244.955765,168.194183 
	C250.478699,171.878281 256.082764,175.443787 261.711731,178.964554 
	C264.476715,180.693970 266.133942,182.267670 263.344604,185.552383 
	C261.073181,188.227188 259.852966,191.899048 255.367844,188.062820 
	C252.116364,185.281738 248.135925,183.369202 244.596985,180.902359 
	C242.074539,179.144073 240.361755,179.814697 238.783173,182.141937 
	C236.078018,186.129990 233.002884,189.899567 230.631607,194.072571 
	C228.193085,198.363876 225.572815,195.926453 223.136246,194.680603 
	C220.624954,193.396484 218.745697,191.571671 221.048538,188.357208 
	C223.947754,184.310318 226.641785,180.116425 229.614883,175.681137 
z"/>
</svg>